Format : AVI 
Format/Info : Audio Video Interleave 
File size : 939 MiB 
Duration : 1h 18mn 
Overall bit rate : 1 669 Kbps 
Writing application : VirtualDubMod 1.5.10.3 | www.virtualdub-fr.org || (build 2550/release) 
Writing library : VirtualDubMod build 2550/release 

Video 
ID : 0 
Format : MPEG-4 Visual 
Format profile : Simple@L3 
Format settings, BVOP : No 
Format settings, QPel : No 
Format settings, GMC : No warppoints 
Format settings, Matrix : Default (H.263) 
Codec ID : XVID 
Codec ID/Hint : XviD 
Duration : 1h 18mn 
Bit rate : 1 499 Kbps 
Width : 640 pixels 
Height : 480 pixels 
Display aspect ratio : 4:3 
Frame rate : 23.976 fps 
Color space : YUV 
Chroma subsampling : 4:2:0 
Bit depth : 8 bits 
Scan type : Progressive 
Bits/(Pixel*Frame) : 0.204 
Stream size : 843 MiB (90%) 
Writing library : XviD 1.1.2 (UTC 2006-11-01) 

Audio 
ID : 1 
Format : MPEG Audio 
Format version : Version 1 
Format profile : Layer 3 
Mode : Joint stereo 
Mode extension : MS Stereo 
Codec ID : 55 
Codec ID/Hint : MP3 
Duration : 1h 18mn 
Bit rate mode : Constant 
Bit rate : 160 Kbps 
Channel(s) : 2 channels 
Sampling rate : 48.0 KHz 
Stream size : 90.0 MiB (10%) 
Alignment : Split accross interleaves 
Interleave, duration : 42 ms (1.00 video frame) 
Interleave, preload duration : 500 ms